<svg xmlns="http://www.w3.org/2000/svg" viewBox="0 0 49 49" width="196" height="196" role="img" aria-labelledby="qr-title qr-desc" data-generator="Segno 1.6.6" data-module-count="41" data-qr-value="riot://open?namespace=ae5f04268d4d2a2f86df7a43e0afe1f26577ac58dcefe95bd9b6e634c5e0155c"><title id="qr-title">Open in Riot</title><desc id="qr-desc">riot://open?namespace=ae5f04268d4d2a2f86df7a43e0afe1f26577ac58dcefe95bd9b6e634c5e0155c</desc><path class="qrline" stroke="#000" d="M4 4.5h7m3 0h1m1 0h3m1 0h2m1 0h1m1 0h1m1 0h1m1 0h2m3 0h3m1 0h7m-41 1h1m5 0h1m4 0h1m1 0h2m1 0h2m2 0h2m3 0h4m1 0h1m3 0h1m5 0h1m-41 1h1m1 0h3m1 0h1m1 0h2m3 0h1m2 0h4m1 0h2m1 0h2m1 0h2m5 0h1m1 0h3m1 0h1m-41 1h1m1 0h3m1 0h1m1 0h5m1 0h2m5 0h1m1 0h1m2 0h2m2 0h2m2 0h1m1 0h3m1 0h1m-41 1h1m1 0h3m1 0h1m1 0h1m1 0h2m1 0h2m1 0h1m1 0h7m3 0h1m2 0h2m1 0h1m1 0h3m1 0h1m-41 1h1m5 0h1m1 0h1m2 0h4m6 0h1m2 0h1m2 0h1m2 0h1m3 0h1m5 0h1m-41 1h7m1 0h1m1 0h1m1 0h1m1 0h1m1 0h1m1 0h1m1 0h1m1 0h1m1 0h1m1 0h1m1 0h1m1 0h1m1 0h1m1 0h7m-33 1h2m4 0h3m2 0h4m3 0h1m1 0h1m1 0h2m-32 1h1m1 0h5m2 0h2m1 0h1m1 0h1m1 0h3m3 0h1m1 0h4m1 0h1m2 0h1m1 0h5m-39 1h3m1 0h2m1 0h1m1 0h1m1 0h3m1 0h2m2 0h3m1 0h1m4 0h1m1 0h7m3 0h1m-36 1h2m3 0h1m4 0h2m3 0h1m3 0h1m1 0h2m2 0h1m1 0h1m2 0h1m2 0h2m-38 1h3m2 0h1m2 0h2m1 0h2m1 0h1m4 0h2m1 0h1m3 0h1m2 0h2m2 0h3m-38 1h2m1 0h4m6 0h6m1 0h1m1 0h1m1 0h3m1 0h4m6 0h1m-38 1h1m5 0h3m1 0h1m1 0h1m2 0h1m4 0h1m3 0h1m1 0h1m4 0h6m2 0h1m-41 1h1m2 0h1m2 0h1m1 0h1m1 0h2m8 0h1m2 0h2m2 0h2m2 0h1m1 0h2m1 0h1m2 0h1m-38 1h2m1 0h1m1 0h1m1 0h4m2 0h2m1 0h1m2 0h1m1 0h1m2 0h2m2 0h5m4 0h2m-41 1h2m3 0h2m1 0h1m1 0h1m1 0h1m1 0h2m1 0h1m2 0h1m2 0h1m1 0h1m1 0h1m1 0h1m1 0h3m1 0h1m1 0h3m-40 1h2m1 0h1m4 0h2m1 0h1m3 0h2m1 0h2m2 0h3m1 0h1m1 0h4m1 0h2m1 0h2m2 0h1m-41 1h2m1 0h2m1 0h1m1 0h2m1 0h1m3 0h2m1 0h1m3 0h1m1 0h1m2 0h1m1 0h1m2 0h1m3 0h1m1 0h2m-40 1h1m1 0h4m4 0h1m3 0h3m2 0h2m5 0h1m1 0h3m1 0h2m1 0h2m2 0h1m-40 1h2m1 0h1m2 0h6m1 0h1m1 0h1m2 0h1m2 0h2m4 0h2m3 0h2m1 0h1m1 0h3m-40 1h1m1 0h3m2 0h1m2 0h1m1 0h1m2 0h2m2 0h3m1 0h4m3 0h2m2 0h1m1 0h1m3 0h1m-40 1h1m2 0h3m1 0h1m11 0h1m5 0h2m5 0h1m1 0h2m-37 1h1m1 0h2m1 0h1m4 0h7m4 0h2m1 0h1m1 0h2m4 0h1m2 0h2m2 0h2m-40 1h2m2 0h3m2 0h1m1 0h3m1 0h2m4 0h1m2 0h2m2 0h1m5 0h1m1 0h2m-37 1h1m1 0h1m3 0h3m2 0h1m4 0h4m1 0h1m4 0h1m1 0h5m1 0h1m1 0h3m-39 1h2m2 0h1m3 0h1m7 0h1m1 0h3m2 0h6m1 0h2m1 0h1m1 0h1m-37 1h4m5 0h2m1 0h1m2 0h1m3 0h5m3 0h1m1 0h3m1 0h4m-37 1h4m1 0h2m1 0h3m1 0h1m3 0h1m1 0h1m5 0h1m3 0h1m1 0h1m1 0h1m1 0h1m2 0h1m-39 1h4m3 0h2m2 0h1m2 0h2m2 0h1m1 0h3m1 0h1m1 0h3m1 0h1m2 0h1m2 0h1m3 0h1m-41 1h1m2 0h2m1 0h1m1 0h1m3 0h2m1 0h5m2 0h1m3 0h1m2 0h2m3 0h1m3 0h2m-40 1h1m6 0h1m1 0h2m1 0h1m1 0h2m3 0h3m2 0h1m1 0h1m1 0h1m5 0h3m2 0h2m-41 1h1m2 0h4m1 0h2m1 0h4m1 0h5m1 0h1m1 0h3m2 0h1m2 0h7m-31 1h3m1 0h2m2 0h2m1 0h1m1 0h1m1 0h1m1 0h1m2 0h1m1 0h3m3 0h2m2 0h1m-41 1h7m2 0h1m2 0h4m1 0h1m2 0h2m2 0h5m1 0h3m1 0h1m1 0h2m1 0h1m-40 1h1m5 0h1m1 0h2m1 0h2m2 0h4m1 0h6m1 0h2m3 0h1m3 0h1m2 0h2m-41 1h1m1 0h3m1 0h1m1 0h6m2 0h1m4 0h1m2 0h1m1 0h3m1 0h1m1 0h7m-39 1h1m1 0h3m1 0h1m1 0h1m4 0h1m4 0h6m5 0h1m1 0h3m1 0h1m-36 1h1m1 0h3m1 0h1m1 0h3m1 0h1m1 0h5m2 0h2m3 0h2m1 0h1m3 0h5m-38 1h1m5 0h1m2 0h1m5 0h2m1 0h1m2 0h3m2 0h1m1 0h1m1 0h1m1 0h1m2 0h1m3 0h1m-40 1h7m1 0h1m1 0h2m6 0h1m1 0h1m4 0h7m1 0h1m1 0h1m1 0h2"/></svg>
