<svg xmlns="http://www.w3.org/2000/svg" viewBox="0 0 49 49" width="196" height="196" role="img" aria-labelledby="qr-title qr-desc" data-generator="Segno 1.6.6" data-module-count="41" data-qr-value="riot://open?namespace=3d4017c3e843895a92b70aa74d1b7ebc9c982ccf2ec4968cc0cd55f12af4660c"><title id="qr-title">Open in Riot</title><desc id="qr-desc">riot://open?namespace=3d4017c3e843895a92b70aa74d1b7ebc9c982ccf2ec4968cc0cd55f12af4660c</desc><path class="qrline" stroke="#000" d="M4 4.5h7m2 0h1m3 0h1m3 0h1m1 0h1m1 0h1m1 0h1m1 0h2m4 0h1m2 0h7m-41 1h1m5 0h1m2 0h2m1 0h1m3 0h2m3 0h1m2 0h5m1 0h1m3 0h1m5 0h1m-41 1h1m1 0h3m1 0h1m1 0h4m1 0h3m1 0h6m1 0h2m1 0h1m3 0h2m1 0h1m1 0h3m1 0h1m-41 1h1m1 0h3m1 0h1m1 0h1m1 0h2m2 0h1m5 0h2m4 0h1m3 0h1m1 0h1m1 0h1m1 0h3m1 0h1m-41 1h1m1 0h3m1 0h1m1 0h1m2 0h1m6 0h2m1 0h4m3 0h1m2 0h1m2 0h1m1 0h3m1 0h1m-41 1h1m5 0h1m1 0h4m1 0h2m1 0h1m4 0h1m5 0h1m2 0h1m3 0h1m5 0h1m-41 1h7m1 0h1m1 0h1m1 0h1m1 0h1m1 0h1m1 0h1m1 0h1m1 0h1m1 0h1m1 0h1m1 0h1m1 0h1m1 0h1m1 0h7m-33 1h1m3 0h2m1 0h1m2 0h2m1 0h2m1 0h1m1 0h1m3 0h1m-31 1h1m1 0h5m3 0h4m3 0h2m3 0h1m1 0h4m1 0h1m1 0h2m1 0h5m-38 1h1m3 0h1m1 0h1m3 0h2m1 0h1m1 0h1m2 0h3m1 0h1m4 0h5m1 0h1m1 0h1m3 0h1m-39 1h6m4 0h3m1 0h2m2 0h1m1 0h1m1 0h2m1 0h1m2 0h1m1 0h2m2 0h1m1 0h2m-32 1h3m1 0h2m1 0h2m2 0h1m1 0h2m1 0h1m3 0h1m2 0h3m3 0h1m1 0h2m-41 1h2m4 0h1m1 0h3m1 0h1m2 0h3m2 0h1m3 0h2m2 0h4m3 0h1m2 0h1m-39 1h1m1 0h2m3 0h2m2 0h1m1 0h3m2 0h1m2 0h2m3 0h2m4 0h3m1 0h2m2 0h1m-40 1h2m2 0h3m1 0h2m1 0h2m4 0h1m1 0h1m2 0h9m1 0h7m-40 1h3m2 0h1m1 0h1m1 0h3m1 0h2m6 0h3m3 0h1m2 0h8m2 0h1m-41 1h2m1 0h2m1 0h3m1 0h1m1 0h1m2 0h4m3 0h2m1 0h1m1 0h3m1 0h1m1 0h1m1 0h1m2 0h2m-40 1h1m2 0h1m5 0h2m1 0h1m6 0h2m2 0h2m1 0h1m2 0h6m1 0h1m1 0h1m1 0h1m-41 1h5m1 0h2m2 0h1m7 0h1m1 0h1m1 0h1m4 0h1m1 0h1m2 0h3m1 0h2m1 0h1m-38 1h4m5 0h1m8 0h1m2 0h2m1 0h6m1 0h1m1 0h3m-35 1h1m2 0h3m2 0h1m1 0h1m2 0h1m1 0h1m2 0h2m1 0h1m2 0h2m3 0h2m1 0h1m2 0h2m-38 1h1m4 0h1m1 0h1m1 0h1m1 0h4m2 0h3m1 0h1m1 0h2m3 0h2m2 0h1m1 0h2m2 0h1m-41 1h2m3 0h2m3 0h1m1 0h4m4 0h1m5 0h3m3 0h2m-27 1h2m1 0h1m1 0h1m1 0h2m2 0h1m2 0h2m1 0h1m1 0h2m3 0h1m1 0h4m2 0h2m-41 1h2m1 0h1m2 0h1m2 0h6m1 0h3m1 0h1m1 0h1m2 0h2m2 0h1m5 0h1m1 0h2m-37 1h1m2 0h1m4 0h2m4 0h1m2 0h1m1 0h1m1 0h1m4 0h1m1 0h5m1 0h1m1 0h3m-40 1h3m2 0h1m2 0h2m1 0h1m2 0h1m4 0h3m2 0h4m3 0h2m1 0h3m-35 1h2m2 0h1m3 0h3m1 0h2m3 0h2m1 0h2m1 0h1m1 0h1m2 0h2m1 0h1m2 0h1m-38 1h1m2 0h1m2 0h8m1 0h1m1 0h1m1 0h1m2 0h1m2 0h1m3 0h1m1 0h1m1 0h1m4 0h2m-40 1h6m1 0h1m2 0h7m1 0h1m1 0h2m2 0h5m1 0h1m2 0h1m1 0h2m2 0h2m-41 1h1m5 0h1m2 0h5m1 0h5m1 0h2m11 0h2m1 0h2m-39 1h1m1 0h1m4 0h6m2 0h1m2 0h4m2 0h1m3 0h1m5 0h1m1 0h1m2 0h2m-41 1h1m1 0h1m3 0h1m1 0h3m3 0h1m1 0h2m1 0h2m3 0h3m1 0h2m2 0h8m-32 1h2m1 0h2m1 0h1m2 0h3m1 0h3m1 0h1m4 0h1m1 0h1m3 0h1m3 0h1m-41 1h7m3 0h1m2 0h1m2 0h2m2 0h2m3 0h4m1 0h3m1 0h1m1 0h4m-40 1h1m5 0h1m1 0h1m3 0h1m1 0h1m2 0h2m1 0h6m5 0h2m3 0h1m2 0h1m-40 1h1m1 0h3m1 0h1m1 0h3m1 0h3m5 0h2m2 0h1m1 0h3m1 0h1m1 0h8m-40 1h1m1 0h3m1 0h1m1 0h1m3 0h2m1 0h1m2 0h2m1 0h3m5 0h1m1 0h3m1 0h1m1 0h1m-38 1h1m1 0h3m1 0h1m1 0h2m4 0h1m2 0h2m2 0h2m1 0h1m1 0h4m3 0h4m1 0h1m-39 1h1m5 0h1m2 0h3m3 0h2m1 0h1m1 0h3m1 0h1m1 0h2m2 0h3m2 0h1m3 0h1m-40 1h7m1 0h2m5 0h2m1 0h1m1 0h1m4 0h6m2 0h1m1 0h1m1 0h2"/></svg>
